
<svg version="1.1" viewBox="0.0 0.0 177.31758530183728 100.0" fill="none" stroke="none" stroke-linecap="square" stroke-miterlimit="10" xmlns:xlink="http://www.w3.org/1999/xlink" xmlns="http://www.w3.org/2000/svg"><clipPath id="p.0"><path d="m0 0l177.31758 0l0 100.0l-177.31758 0l0 -100.0z" clip-rule="nonzero"/></clipPath><g clip-path="url(#p.0)"><path fill="#000000" fill-opacity="0.0" d="m0 0l177.31758 0l0 100.0l-177.31758 0z" fill-rule="evenodd"/><g filter="url(#shadowFilter-p.1)"><use xlink:href="#p.1" transform="matrix(1.0 0.0 0.0 1.0 -6.151121765296916 9.119413601131889)"/></g><defs><filter id="shadowFilter-p.1" filterUnits="userSpaceOnUse"><feGaussianBlur in="SourceAlpha" stdDeviation="1.5" result="blur"/><feComponentTransfer in="blur" color-interpolation-filters="sRGB"><feFuncR type="linear" slope="0" intercept="0.0"/><feFuncG type="linear" slope="0" intercept="0.0"/><feFuncB type="linear" slope="0" intercept="0.0"/><feFuncA type="linear" slope="0.51" intercept="0"/></feComponentTransfer></filter></defs><g id="p.1"><path fill="#000000" fill-opacity="0.0" d="m-7.4094486 11.427821l187.90552 0l0 64.0315l-187.90552 0z" fill-rule="evenodd"/><path fill="#000000" d="m46.074924 50.38282q0 3.09375 -0.6875 5.5q-0.671875 2.390625 -1.90625 4.171875q-1.21875 1.78125 -2.953125 3.03125q-1.71875 1.234375 -3.828125 1.984375q-2.109375 0.75 -4.546875 1.09375q-2.437498 0.34375 -5.078123 0.34375l-20.4375 0l0 -32.203125l20.390625 0q2.640625 0 5.078123 0.34375q2.4375 0.328125 4.5625 1.078125q2.125 0.75 3.859375 1.984375q1.734375 1.234375 2.953125 3.03125q1.234375 1.78125 1.90625 4.171875q0.6875 2.390625 0.6875 5.46875zm-8.765625 0q0 -2.328125 -0.59375 -4.03125q-0.59375 -1.71875 -1.921875 -2.828125q-1.328125 -1.109375 -3.468748 -1.65625q-2.125 -0.5625 -5.1875 -0.5625l-10.8125 0l0 18.1875l10.8125 0q3.0625 0 5.1875 -0.546875q2.140623 -0.546875 3.468748 -1.6875q1.328125 -1.140625 1.921875 -2.84375q0.59375 -1.71875 0.59375 -4.03125zm25.382812 -9.21875l0 5.609375l20.937504 0l0 6.859375l-20.937504 0l0 12.875l-8.6875 0l0 -32.203125l30.765629 0l0 6.859375l-22.078129 0zm65.0 23.140625q-1.6875 0.703125 -3.40625 1.265625q-1.703125 0.5625 -3.53125 0.96875q-1.828125 0.421875 -3.859375 0.625q-2.03125 0.21875 -4.34375 0.21875q-4.921875 0 -9.0625 -1.0625q-4.140625 -1.0625 -7.125 -3.171875q-2.984375 -2.125 -4.65625 -5.296875q-1.65625 -3.1875 -1.65625 -7.421875q0 -4.25 1.65625 -7.421875q1.671875 -3.171875 4.65625 -5.296875q2.984375 -2.125 7.125 -3.171875q4.140625 -1.0625 9.0625 -1.0625q2.3125 0 4.34375 0.21875q2.03125 0.203125 3.859375 0.625q1.828125 0.40625 3.53125 0.96875q1.71875 0.5625 3.40625 1.265625l0 7.828125q-1.34375 -0.734375 -2.828125 -1.4375q-1.46875 -0.71875 -3.25 -1.296875q-1.78125 -0.578125 -3.921875 -0.9375q-2.125 -0.359375 -4.796875 -0.359375q-4.09375 0 -6.8125 0.84375q-2.703125 0.84375 -4.328125 2.25q-1.609375 1.40625 -2.265625 3.21875q-0.65625 1.8125 -0.65625 3.765625q0 1.28125 0.28125 2.546875q0.28125 1.25 0.9375 2.359375q0.65625 1.109375 1.703125 2.046875q1.0625 0.9375 2.625 1.625q1.578125 0.671875 3.671875 1.0625q2.109375 0.390625 4.84375 0.390625q2.671875 0 4.796875 -0.34375q2.140625 -0.34375 3.921875 -0.90625q1.78125 -0.5625 3.25 -1.265625q1.484375 -0.71875 2.828125 -1.46875l0 7.828125l0 0zm8.109367 2.203125l0 -32.203125l8.6875 0l0 25.140625l23.515625 0l0 7.0625l-32.203125 0z" fill-rule="nonzero"/></g></g></svg>
